<?xml version="1.0" standalone="no"?>
<!DOCTYPE svg PUBLIC "-//W3C//DTD SVG 20010904//EN"
 "http://www.w3.org/TR/2001/REC-SVG-20010904/DTD/svg10.dtd">
<svg version="1.0" xmlns="http://www.w3.org/2000/svg"
 width="64.000000pt" height="64.000000pt" viewBox="0 0 64.000000 64.000000"
 preserveAspectRatio="xMidYMid meet">

<g transform="translate(0.000000,64.000000) scale(0.100000,-0.100000)"
fill="#000000" stroke="none">
<path d="M286 621 c-20 -13 -39 -18 -61 -14 -28 5 -34 1 -53 -31 -12 -20 -32
-38 -46 -42 -27 -6 -29 -11 -26 -57 1 -15 -5 -39 -14 -52 -20 -31 -20 -59 -1
-75 10 -8 15 -27 13 -51 -1 -28 3 -43 16 -52 16 -12 14 -17 -23 -82 -23 -38
-41 -73 -41 -76 0 -4 21 -10 46 -14 38 -5 49 -12 66 -41 11 -19 23 -34 27 -34
4 0 26 33 48 73 41 72 42 72 83 72 40 0 42 -1 83 -72 23 -40 45 -73 49 -73 4
0 14 13 23 30 18 35 43 50 84 50 17 0 31 4 31 9 0 5 -18 39 -40 77 -38 66 -39
68 -21 85 12 12 17 26 13 44 -2 15 3 40 14 60 18 33 18 36 1 64 -9 16 -17 47
-17 69 0 35 -3 41 -29 50 -17 6 -37 24 -46 42 -15 29 -20 32 -49 27 -23 -4
-42 1 -62 14 -16 10 -31 19 -34 19 -3 0 -18 -9 -34 -19z m135 -75 c124 -83
110 -266 -26 -327 -160 -73 -322 103 -240 261 49 93 176 125 266 66z"/>
<path d="M265 535 c-136 -49 -136 -239 0 -290 80 -31 162 3 197 81 56 127 -66
257 -197 209z m125 -112 c36 -7 36 -6 9 -42 -12 -17 -19 -39 -17 -57 2 -22 -1
-28 -12 -24 -8 2 -31 4 -50 4 -19 0 -42 -2 -50 -4 -11 -4 -13 3 -11 30 1 26
-4 41 -18 54 -28 25 -26 32 8 39 17 4 38 19 51 37 l22 31 19 -31 c12 -19 30
-33 49 -37z"/>
</g>
</svg>
